HIERARCHY
ROOT root
{
	OFFSET	0	13.1	24.9
	CHANNELS 6  Xposition Yposition Zposition Xrotation Yrotation Zrotation
	JOINT spine_1
	{
		OFFSET	0	9.99999	0
		CHANNELS 3  Xrotation Yrotation Zrotation
		JOINT spine_2
		{
			OFFSET	0	112	-10
			CHANNELS 3  Xrotation Yrotation Zrotation
			JOINT spine_3
			{
				OFFSET	0	206.5	19.3
				CHANNELS 3  Xrotation Yrotation Zrotation
				JOINT spine_4
				{
					OFFSET	0	110.4	14.6
					CHANNELS 3  Xrotation Yrotation Zrotation
					JOINT neck_1
					{
						OFFSET	0	71.8	-50.3
						CHANNELS 3  Xrotation Yrotation Zrotation
						JOINT neck_2
						{
							OFFSET	0	86.2	-25.8
							CHANNELS 3  Xrotation Yrotation Zrotation
							JOINT head_ee
							{
								OFFSET	0	179.8	-8.7
								CHANNELS 3  Xrotation Yrotation Zrotation
								End Site
								{
									OFFSET	1	0	0
								}
							}
						}
					}
					JOINT left_clavicle
					{
						OFFSET	-43.2	22.4	-70.8
						CHANNELS 3  Xrotation Yrotation Zrotation
						JOINT left_shoulder
						{
							OFFSET	-93.9	-5.79999	48.7
							CHANNELS 3  Xrotation Yrotation Zrotation
							JOINT left_elbow
							{
								OFFSET	-291.4	-30.8	15.2
								CHANNELS 3  Xrotation Yrotation Zrotation
								JOINT left_lowarm_twist
								{
									OFFSET	-110.7	-3.89999	13.6
									CHANNELS 3  Xrotation Yrotation Zrotation
									JOINT left_hand
									{
										OFFSET	-110.7	-3.89999	13.6
										CHANNELS 3  Xrotation Yrotation Zrotation
										JOINT left_ee
										{
											OFFSET	-80.8	-5.10001	12.1
											CHANNELS 3  Xrotation Yrotation Zrotation
											End Site
											{
												OFFSET	1	0	0
											}
										}
									}
								}
							}
						}
					}
					JOINT right_clavicle
					{
						OFFSET	43.2	22.4	-70.8
						CHANNELS 3  Xrotation Yrotation Zrotation
						JOINT right_shoulder
						{
							OFFSET	93.9	-5.79999	48.7
							CHANNELS 3  Xrotation Yrotation Zrotation
							JOINT right_elbow
							{
								OFFSET	291.4	-30.8	15.2
								CHANNELS 3  Xrotation Yrotation Zrotation
								JOINT right_lowarm_twist
								{
									OFFSET	110.7	-3.89999	13.6
									CHANNELS 3  Xrotation Yrotation Zrotation
									JOINT right_hand
									{
										OFFSET	110.7	-3.89999	13.6
										CHANNELS 3  Xrotation Yrotation Zrotation
										JOINT right_ee
										{
											OFFSET	80.8	-5.10001	12.1
											CHANNELS 3  Xrotation Yrotation Zrotation
											End Site
											{
												OFFSET	1	0	0
											}
										}
									}
								}
							}
						}
					}
				}
			}
		}
	}
	JOINT left_hip
	{
		OFFSET	-82.8	-127.5	0.300001
		CHANNELS 3  Xrotation Yrotation Zrotation
		JOINT left_knee
		{
			OFFSET	-28.2	-396.7	2.2
			CHANNELS 3  Xrotation Yrotation Zrotation
			JOINT left_ankle
			{
				OFFSET	-11.7	-411.3	35.4
				CHANNELS 3  Xrotation Yrotation Zrotation
				JOINT left_toes
				{
					OFFSET	0	-60	-88.6
					CHANNELS 3  Xrotation Yrotation Zrotation
					JOINT left_foot_ee
					{
						OFFSET	-22.5	-16.5	-42.2
						CHANNELS 3  Xrotation Yrotation Zrotation
						End Site
						{
							OFFSET	1	0	0
						}
					}
				}
			}
		}
	}
	JOINT right_hip
	{
		OFFSET	82.8	-127.5	0.300001
		CHANNELS 3  Xrotation Yrotation Zrotation
		JOINT right_knee
		{
			OFFSET	28.2	-396.7	2.2
			CHANNELS 3  Xrotation Yrotation Zrotation
			JOINT right_ankle
			{
				OFFSET	11.7	-411.3	35.4
				CHANNELS 3  Xrotation Yrotation Zrotation
				JOINT right_toes
				{
					OFFSET	0	-60	-88.6
					CHANNELS 3  Xrotation Yrotation Zrotation
					JOINT right_foot_ee
					{
						OFFSET	22.5	-16.5	-42.2
						CHANNELS 3  Xrotation Yrotation Zrotation
						End Site
						{
							OFFSET	1	0	0
						}
					}
				}
			}
		}
	}
}
MOTION
Frames: 11
Frame Time: 0.02
3500.93 746.072 -1438.04 5.61094 64.561 -5.82606 -0.0433662 0.535031 0.578742 -0.0433172 0.49712 0.611614 -0.0378261 0.357036 0.702654 -0.0382156 0.463524 0.637451 -26.2055 14.1508 -3.38541 -28.148 28.5209 4.92723 -0.0 0.0 -0.0 -0.537257 17.3445 1.20545 -4.39037 -12.6696 72.5426 1.84922 -42.4871 0.718935 -3.74606 -0.146958 0.455636 1.24417 -8.13328 4.95349 -0.0 0.0 -0.0 8.39589 19.0751 -15.9084 -20.2403 25.0955 -62.5125 0.865232 23.2003 -0.177612 9.44167 -0.235752 1.18168 2.74021 -15.8282 -24.1416 0.0 0.0 0.0 -2.28045 32.6068 -0.961356 -10.1044 0.282347 1.52299 23.8104 -7.34381 -3.29056 -31.4375 0.0 0.0 -0.0 0.0 -0.0 5.07408 -0.739868 1.75046 -11.8163 -0.303385 -1.78481 11.6013 28.2353 2.02625 -6.45375 0.0 0.0 0.0 0.0 0.0 
3490.89 745.076 -1446.42 6.15299 63.7831 -6.63745 -0.177795 0.615988 0.698349 -0.177705 0.570303 0.736129 -0.170103 0.400402 0.840715 -0.170699 0.528149 0.766934 -27.4128 14.5462 -1.77917 -29.5156 28.5497 6.98388 -0.0 0.0 -0.0 -0.927649 17.9892 0.693227 -6.44223 -14.5145 72.3605 1.86251 -42.6914 0.727929 -3.3733 -0.131002 0.410733 1.28623 -7.61952 5.45763 -0.0 0.0 -0.0 8.99284 21.2212 -17.0646 -20.6482 25.5211 -63.0636 0.84164 22.6322 -0.168425 8.87335 -0.227099 1.1096 2.91592 -14.7165 -25.0307 0.0 0.0 0.0 -2.54402 32.0075 -0.990934 -12.0938 0.306058 1.8273 23.9697 -4.10077 -3.26865 -31.1299 0.0 0.0 -0.0 0.0 -0.0 2.51614 -0.148799 2.40057 -10.677 -0.290254 -1.61049 14.3875 29.9189 2.53445 -4.8997 0.0 0.0 0.0 0.0 0.0 
3482.73 739.381 -1456.63 7.51565 62.5973 -8.90994 -0.256058 0.774907 0.87513 -0.255918 0.717652 0.922663 -0.243918 0.503311 1.05499 -0.244857 0.663602 0.962268 -26.4756 15.2285 -0.803462 -28.6399 29.5428 8.07354 -0.0 0.0 -0.0 -1.28903 18.8178 0.265187 -8.04263 -15.1619 71.509 1.84508 -42.4232 0.716142 -2.58907 -0.0983886 0.315935 1.30705 -8.10026 5.39381 -0.0 0.0 -0.0 9.69588 24.6414 -18.3237 -20.6607 26.0501 -64.0189 0.768487 20.8411 -0.141331 8.48182 -0.220722 1.06 2.95585 -14.4188 -25.2215 0.0 0.0 0.0 -4.01308 32.4666 -0.357576 -13.4048 0.315902 2.02822 26.6284 -1.53865 -3.55178 -30.7041 0.0 0.0 -0.0 0.0 -0.0 2.08432 -1.15115 2.15915 -11.2445 -0.297229 -1.6973 16.4473 26.4739 2.74622 -3.87581 0.0 0.0 0.0 0.0 0.0 
3476.6 734.527 -1468.45 10.0947 64.2686 -11.602 -0.371924 0.412307 0.940284 -0.371501 0.351642 0.964611 -0.365156 0.134598 1.01784 -0.366482 0.29365 0.983816 -27.8973 15.0653 2.93542 -29.8975 27.7817 11.7466 -0.0 0.0 -0.0 -1.30981 15.9419 -0.193779 -10.4337 -14.9308 71.4504 1.68764 -39.8925 0.612496 -1.44739 -0.0532413 0.177161 1.29755 -9.81461 4.59394 -0.0 0.0 -0.0 11.1615 27.2128 -21.3379 -15.3275 24.1695 -63.3541 0.517569 14.3804 -0.0652948 9.56964 -0.237602 1.19792 3.29743 -13.7189 -27.4347 0.0 0.0 0.0 -5.27184 32.0759 -0.696415 -13.5548 0.316735 2.05121 25.3603 -0.987801 -3.40215 -31.7718 0.0 0.0 -0.0 0.0 -0.0 1.12128 0.35331 2.04119 -15.2614 -0.321973 -2.31299 21.8722 23.0905 3.41727 -2.21013 0.0 0.0 0.0 0.0 0.0 
3469.53 733.101 -1477.71 11.7922 60.7957 -13.6378 -0.778835 0.853673 1.22011 -0.77834 0.774311 1.27195 -0.760205 0.471154 1.41258 -0.762329 0.688313 1.32047 -27.3341 16.2049 4.87172 -29.4585 29.2403 14.0962 -0.0 0.0 -0.0 -1.41324 15.6335 -0.403918 -11.7669 -14.0194 71.2068 1.55158 -37.5434 0.527374 -0.557267 -0.0199682 0.0683658 1.07221 -10.0928 2.95007 -0.0 0.0 -0.0 11.8149 27.8298 -22.7422 -12.0694 23.9658 -62.9026 0.473075 13.1893 -0.0546921 10.2665 -0.247037 1.28644 3.53443 -13.6406 -29.1288 0.0 0.0 0.0 -5.86444 28.7532 -0.778393 -17.2931 0.318041 2.62467 26.4563 1.28032 -3.51219 -32.3285 0.0 0.0 -0.0 0.0 -0.0 0.854969 1.51783 1.96096 -18.5278 -0.310254 -2.81395 23.7461 19.6103 3.5525 -3.17505 0.0 0.0 0.0 0.0 0.0 
3466.19 733.257 -1486.95 10.4377 58.45 -12.0617 -0.97727 1.19021 1.26351 -0.977064 1.1074 1.33668 -0.950099 0.776415 1.55246 -0.952034 1.01183 1.4104 -27.0057 16.7245 6.66647 -29.0704 29.5539 15.9326 -0.0 0.0 -0.0 -1.81983 18.2244 -0.629143 -11.9786 -13.1015 71.0871 1.5512 -37.5368 0.527146 0.515528 0.0178789 -0.063413 1.11279 -11.5362 2.6013 -0.0 0.0 -0.0 12.3422 27.4976 -23.9841 -8.23139 23.9239 -63.2913 0.376459 10.5638 -0.0348031 10.872 -0.254361 1.36343 4.00171 -12.2951 -32.2286 0.0 0.0 0.0 -6.28179 30.2876 -2.17641 -16.0289 0.321787 2.43075 24.8759 1.56155 -3.32946 -31.9365 0.0 0.0 -0.0 0.0 -0.0 0.0893741 3.47958 1.83624 -18.6473 -0.309283 -2.83226 25.3158 23.9167 3.9064 -1.13732 0.0 0.0 0.0 0.0 0.0 
3456.4 731.422 -1492.0 12.0609 58.1103 -13.4834 -1.22947 1.16366 1.33272 -1.22912 1.0765 1.40405 -1.20142 0.724003 1.61429 -1.20374 0.969837 1.47973 -28.1227 16.3675 8.47195 -30.0166 28.2952 17.6636 -0.0 0.0 -0.0 -1.76496 16.4847 -0.82598 -14.1714 -14.7176 71.4619 1.43668 -35.4369 0.459035 0.0512599 0.00180321 -0.00629816 1.26248 -11.8106 3.49264 -0.0 0.0 -0.0 12.7761 28.0412 -24.9074 -5.67251 24.4899 -63.0599 0.278497 7.85509 -0.0191206 10.5622 -0.250716 1.32403 3.81367 -12.4879 -30.8611 0.0 0.0 0.0 -5.70638 29.2546 -2.73464 -15.2108 0.32193 2.30523 26.1777 4.66283 -3.46785 -32.5099 0.0 0.0 -0.0 0.0 -0.0 -0.414583 2.6755 1.50387 -20.9489 -0.283153 -3.18442 30.8863 19.4397 4.4081 1.25305 -0.0 -0.0 0.0 0.0 0.0 
3453.78 731.923 -1499.46 13.4355 56.0863 -14.7595 -1.37446 0.985897 1.5072 -1.37364 0.888004 1.56687 -1.34769 0.498572 1.73059 -1.35105 0.765593 1.63017 -27.6634 16.8042 9.39132 -29.5262 28.7627 18.6143 -0.0 0.0 -0.0 -2.3727 17.9049 -1.52748 -16.8524 -14.7496 72.3493 1.38489 -34.4496 0.429372 0.256461 0.00896552 -0.0315264 1.22647 -12.021 3.1581 -0.0 0.0 -0.0 12.9683 27.3506 -25.4385 -1.0008 25.472 -63.1484 0.338605 9.52206 -0.0282016 11.3617 -0.259689 1.42575 4.10485 -12.2785 -33.0159 0.0 0.0 0.0 -6.73126 28.9925 -3.4479 -17.9467 0.314427 2.72489 26.388 4.88575 -3.49131 -31.8881 0.0 0.0 -0.0 0.0 -0.0 -1.31061 3.65719 0.506713 -20.8611 -0.284408 -3.17101 30.3243 16.0366 4.23277 0.0730685 -0.0 -0.0 0.0 0.0 0.0 
3450.19 737.625 -1503.73 12.6018 54.8743 -13.5479 -1.40372 0.881018 1.66576 -1.40251 0.773253 1.71843 -1.37739 0.350662 1.85144 -1.3816 0.638616 1.77286 -27.8002 17.0093 10.4932 -29.6082 28.7768 19.7714 -0.0 0.0 -0.0 -2.6048 19.5638 -1.57682 -18.7099 -14.2606 73.1419 1.34366 -33.6464 0.406284 0.487711 0.0169285 -0.0599873 1.1806 -12.2719 2.73954 -0.0 0.0 -0.0 13.1305 26.8339 -25.8775 2.426 26.0488 -63.907 0.34746 9.76635 -0.0296851 11.6401 -0.262481 1.46121 4.17304 -12.2039 -33.5222 0.0 0.0 0.0 -4.70046 28.7215 -4.92783 -19.4628 0.301643 2.95715 27.0382 5.74604 -3.56358 -31.5013 0.0 0.0 -0.0 0.0 -0.0 -2.37851 3.68486 0.287078 -19.9145 -0.296647 -3.02628 29.6076 13.9996 4.09589 1.03591 -0.0 -0.0 0.0 0.0 0.0 
3441.65 733.441 -1504.78 12.7877 54.2944 -13.7359 -1.37819 0.791818 1.71848 -1.37681 0.680879 1.76536 -1.35386 0.250605 1.87541 -1.35836 0.543598 1.81233 -27.2893 17.2187 10.7384 -29.0602 29.0291 19.9398 -0.0 0.0 -0.0 -2.83045 21.2662 -1.58576 -19.8745 -13.8864 74.0621 1.31942 -33.1671 0.392941 0.440032 0.0152962 -0.0541167 1.16044 -12.3343 2.57647 -0.0 0.0 -0.0 13.2871 26.7754 -26.247 4.96042 26.4439 -64.5319 0.388235 10.8864 -0.0369947 12.1626 -0.267254 1.52777 4.28188 -12.174 -34.3642 0.0 0.0 0.0 -3.43426 28.5169 -5.83728 -21.6336 0.27265 3.28897 26.7588 5.82184 -3.53209 -31.2811 0.0 0.0 -0.0 0.0 -0.0 -3.65571 4.52511 0.621038 -19.4965 -0.30129 -2.9623 28.6739 12.5132 3.95425 0.7479 -0.0 -0.0 0.0 0.0 0.0 
3436.33 733.373 -1507.23 12.3518 53.5453 -13.35 -1.45592 0.571145 1.85849 -1.45412 0.451749 1.89105 -1.43712 -0.00447199 1.94424 -1.44226 0.302583 1.92056 -26.1583 17.7864 8.93724 -28.1768 30.6598 18.3389 -0.0 0.0 -0.0 -3.01515 23.0545 -1.4973 -21.1339 -13.7977 74.6986 1.32011 -33.1809 0.393319 0.534205 0.0185158 -0.0657133 1.0783 -11.3756 2.43801 -0.0 0.0 -0.0 12.9746 26.7677 -25.5261 8.30961 27.0123 -65.8428 0.54813 15.1913 -0.0730942 13.5351 -0.276901 1.70281 4.69937 -12.4741 -37.8114 0.0 0.0 0.0 -2.25733 28.4462 -6.25527 -22.4853 0.257844 3.41882 25.4007 5.38035 -3.37778 -31.6008 0.0 0.0 -0.0 0.0 -0.0 -5.59969 11.8924 0.495902 -18.2489 -0.312369 -2.7712 28.1692 12.3704 3.89368 -0.0578132 0.0 0.0 0.0 0.0 0.0 
